<svg width="65" height="65" viewBox="0 0 65 65" fill="none" xmlns="http://www.w3.org/2000/svg">
<rect width="65" height="65" fill="#E5E5E5"/>
<g clip-path="url(#clip0_0_1)">
<rect width="1440" height="928" transform="translate(-1274 -214)" fill="#F7F9FF"/>
<path d="M-1051 34.8638L57 34.8637" stroke="#E7EAF0" stroke-width="3"/>
<g filter="url(#filter0_d_0_1)">
<path d="M-1078 35H28" stroke="#FFB963" stroke-width="3" stroke-linecap="round" stroke-linejoin="round"/>
</g>
<circle cx="32.284" cy="32.284" r="30.284" fill="#F29A2E" stroke="white" stroke-width="4"/>
<path fill-rule="evenodd" clip-rule="evenodd" d="M20.6068 32.2841C20.6068 25.835 25.8349 20.6069 32.284 20.6069C38.7331 20.6069 43.9612 25.835 43.9612 32.2841C43.9612 38.7333 38.7331 43.9613 32.284 43.9613C25.8349 43.9613 20.6068 38.7333 20.6068 32.2841ZM31.6173 37.283L38.3413 28.878L37.1255 27.9054L31.3938 35.07L27.3331 31.686L26.3363 32.8821L31.6173 37.283Z" fill="white"/>
</g>
<defs>
<filter id="filter0_d_0_1" x="-1084.5" y="28.5" width="1119" height="13" filterUnits="userSpaceOnUse" color-interpolation-filters="sRGB">
<feFlood flood-opacity="0" result="BackgroundImageFix"/>
<feColorMatrix in="SourceAlpha" type="matrix" values="0 0 0 0 0 0 0 0 0 0 0 0 0 0 0 0 0 0 127 0" result="hardAlpha"/>
<feOffset/>
<feGaussianBlur stdDeviation="2.5"/>
<feColorMatrix type="matrix" values="0 0 0 0 1 0 0 0 0 0.842857 0 0 0 0 0.65 0 0 0 1 0"/>
<feBlend mode="normal" in2="BackgroundImageFix" result="effect1_dropShadow_0_1"/>
<feBlend mode="normal" in="SourceGraphic" in2="effect1_dropShadow_0_1" result="shape"/>
</filter>
<clipPath id="clip0_0_1">
<rect width="1440" height="928" fill="white" transform="translate(-1274 -214)"/>
</clipPath>
</defs>
</svg>
