<svg width="62" height="62" viewBox="0 0 62 62" fill="none" xmlns="http://www.w3.org/2000/svg">
<rect width="62" height="62" fill="#E5E5E5"/>
<g clip-path="url(#clip0_0_1)">
<rect width="1440" height="900" transform="translate(-172 -219)" fill="#F7F9FF"/>
<path d="M51 29.8638L1159 29.8637" stroke="#E7EAF0" stroke-width="3"/>
<g filter="url(#filter0_d_0_1)">
<path d="M24 29.8638L285 29.8637" stroke="#FFB963" stroke-width="3" stroke-linecap="round" stroke-linejoin="round"/>
</g>
<circle cx="31" cy="31" r="28.2807" fill="#F29A2E" stroke="#FDFDFF" stroke-width="5.4386"/>
<path d="M34.8033 41.6666C34.7333 41.6666 34.6517 41.655 34.5817 41.6316C32.2367 40.9666 29.775 40.9666 27.43 41.6316C26.9983 41.7483 26.5433 41.5033 26.4267 41.0716C26.2983 40.64 26.555 40.185 26.9867 40.0683C29.6233 39.3216 32.4 39.3216 35.0367 40.0683C35.4683 40.1966 35.725 40.64 35.5967 41.0716C35.48 41.4333 35.1533 41.6666 34.8033 41.6666Z" fill="white"/>
<path d="M39.4117 23.42C38.1983 20.97 35.8533 19.1617 33.135 18.5667C30.2883 17.9367 27.3717 18.6133 25.1433 20.41C22.9033 22.195 21.6317 24.8667 21.6317 27.725C21.6317 30.7467 23.44 33.9083 26.17 35.74V36.7083C26.1583 37.035 26.1467 37.5367 26.5433 37.945C26.9517 38.365 27.5583 38.4117 28.0367 38.4117H34.0217C34.6517 38.4117 35.13 38.2367 35.4567 37.91C35.9 37.455 35.8883 36.8717 35.8767 36.5567V35.74C39.4933 33.3017 41.7683 28.1567 39.4117 23.42ZM33.0067 29.5567L31.7583 31.7267C31.595 32.0067 31.3033 32.17 31 32.17C30.8483 32.17 30.6967 32.135 30.5683 32.0533C30.1483 31.8083 30.0083 31.2717 30.2417 30.8633L31.2333 29.1367H30.2533C29.67 29.1367 29.1917 28.88 28.935 28.4483C28.6783 28.005 28.7017 27.4683 28.9933 26.955L30.2417 24.785C30.4867 24.365 31.0233 24.225 31.4317 24.4583C31.8517 24.7033 31.9917 25.24 31.7583 25.6483L30.7667 27.375H31.7467C32.33 27.375 32.8083 27.6317 33.065 28.0633C33.3217 28.5067 33.2983 29.055 33.0067 29.5567Z" fill="white"/>
</g>
<defs>
<filter id="filter0_d_0_1" x="17.5" y="23.3638" width="274" height="13" filterUnits="userSpaceOnUse" color-interpolation-filters="sRGB">
<feFlood flood-opacity="0" result="BackgroundImageFix"/>
<feColorMatrix in="SourceAlpha" type="matrix" values="0 0 0 0 0 0 0 0 0 0 0 0 0 0 0 0 0 0 127 0" result="hardAlpha"/>
<feOffset/>
<feGaussianBlur stdDeviation="2.5"/>
<feColorMatrix type="matrix" values="0 0 0 0 1 0 0 0 0 0.842857 0 0 0 0 0.65 0 0 0 1 0"/>
<feBlend mode="normal" in2="BackgroundImageFix" result="effect1_dropShadow_0_1"/>
<feBlend mode="normal" in="SourceGraphic" in2="effect1_dropShadow_0_1" result="shape"/>
</filter>
<clipPath id="clip0_0_1">
<rect width="1440" height="900" fill="white" transform="translate(-172 -219)"/>
</clipPath>
</defs>
</svg>
