<svg width="66" height="65" viewBox="0 0 66 65" fill="none" xmlns="http://www.w3.org/2000/svg">
<rect width="66" height="65" fill="#E5E5E5"/>
<g clip-path="url(#clip0_0_1)">
<rect width="1440" height="900" transform="translate(-547 -216)" fill="#F7F9FF"/>
<path d="M-324 32.8638L784 32.8637" stroke="#E7EAF0" stroke-width="3"/>
<circle cx="33.1835" cy="32.3668" r="30.284" fill="#E4EAF2" stroke="#F6F9FF" stroke-width="4"/>
<path d="M41.4467 24.5099H40.98L37.0367 20.5666C36.7217 20.2516 36.2083 20.2516 35.8817 20.5666C35.5667 20.8816 35.5667 21.3949 35.8817 21.7216L38.67 24.5099H27.33L30.1183 21.7216C30.4333 21.4066 30.4333 20.8932 30.1183 20.5666C29.8033 20.2516 29.29 20.2516 28.9633 20.5666L25.0317 24.5099H24.565C23.515 24.5099 21.3333 24.5099 21.3333 27.4966C21.3333 28.6282 21.5667 29.3749 22.0567 29.8649C22.3367 30.1566 22.675 30.3082 23.0367 30.3899C23.375 30.4716 23.7367 30.4832 24.0867 30.4832H41.9133C42.275 30.4832 42.6133 30.4599 42.94 30.3899C43.92 30.1566 44.6667 29.4566 44.6667 27.4966C44.6667 24.5099 42.485 24.5099 41.4467 24.5099Z" fill="#ABB5C2"/>
<path d="M41.225 32H24.6817C23.9583 32 23.41 32.6417 23.5267 33.3533L24.5067 39.35C24.8333 41.3567 25.7083 43.6667 29.5933 43.6667H36.1383C40.07 43.6667 40.77 41.695 41.19 39.49L42.3683 33.3883C42.5083 32.665 41.96 32 41.225 32ZM31.3783 39.525C31.3783 39.98 31.0167 40.3417 30.5733 40.3417C30.1183 40.3417 29.7567 39.98 29.7567 39.525V35.675C29.7567 35.2317 30.1183 34.8583 30.5733 34.8583C31.0167 34.8583 31.3783 35.2317 31.3783 35.675V39.525ZM36.3717 39.525C36.3717 39.98 36.01 40.3417 35.555 40.3417C35.1117 40.3417 34.7383 39.98 34.7383 39.525V35.675C34.7383 35.2317 35.1117 34.8583 35.555 34.8583C36.01 34.8583 36.3717 35.2317 36.3717 35.675V39.525Z" fill="#ABB5C2"/>
</g>
<defs>
<clipPath id="clip0_0_1">
<rect width="1440" height="900" fill="white" transform="translate(-547 -216)"/>
</clipPath>
</defs>
</svg>
